# xmcd
#
# Track frame offsets: 
#        150
#        18422
#        36679
#        57580
#        75820
#        92220
#        107496
#        124947
#        144538
#        164962
#        181472
#        201200
#        220108
#        233320
#        249755
#
# Disc length: 3529 seconds
#
# Revision: 8
# Processed by: cddbd v1.5.2PL0 Copyright (c) Steve Scherf et al.
# Submitted via: ExactAudioCopy v0.99pb5
#
DISCID=cd0dc70f
DTITLE=Various Artist - Body and Soul - TL BAS-01 - Love Serenade - CD 2
DYEAR=2004
DGENRE=Pop
TTITLE0=Hot Chocolate - It started with a kiss
TTITLE1=Gregory Abbott - Shake you down
TTITLE2=Billy Paul - Me and Mrs. Jones
TTITLE3=Freddie Jackson - Rock me tonight (for old times sake)
TTITLE4=Charles and Eddie - Would I lie to you?
TTITLE5=Ashford and Simpson - Solid
TTITLE6=Shanice - I love your smile
TTITLE7=Natalie Cole - I've got love on my mind
TTITLE8=Norman Connors and Michael Henderson - You are my starship
TTITLE9=O'Jays - Let me make love to you
TTITLE10=Smokey Robinson - Cruisin'
TTITLE11=Floaters - Float on
TTITLE12=Johnny Mathis and Deniece Williams - Too much, too little, too 
TTITLE12=late
TTITLE13=Commodores - Three times a lady
TTITLE14=Delfonics - Didn't I (blow your mind this time)
EXTD=Rev. #3 submitted by cbs3000 on Dec., 18, 2004
EXTT0=
EXTT1=
EXTT2=
EXTT3=
EXTT4=
EXTT5=
EXTT6=
EXTT7=
EXTT8=
EXTT9=
EXTT10=
EXTT11=
EXTT12=
EXTT13=
EXTT14=
PLAYORDER=
